<?xml version="1.0" standalone="no"?>
<!DOCTYPE svg PUBLIC "-//W3C//DTD SVG 20010904//EN"
 "http://www.w3.org/TR/2001/REC-SVG-20010904/DTD/svg10.dtd">
<svg version="1.0" xmlns="http://www.w3.org/2000/svg"
 width="1024.000000pt" height="1024.000000pt" viewBox="0 0 1024.000000 1024.000000"
 preserveAspectRatio="xMidYMid meet">
<metadata>
Created by potrace 1.16, written by Peter Selinger 2001-2019
</metadata>
<g transform="translate(0.000000,1024.000000) scale(0.100000,-0.100000)"
fill="#000000" stroke="none">
<path d="M5043 8108 c-218 -17 -433 -98 -618 -233 -68 -50 -105 -81 -105 -88
0 -2 37 -8 83 -11 380 -32 781 -219 1017 -473 124 -134 234 -321 289 -492 72
-221 89 -533 45 -810 l-6 -36 129 -18 c161 -22 342 -64 503 -116 69 -23 127
-41 130 -41 4 0 11 33 18 73 74 456 39 908 -98 1274 -245 651 -771 1019 -1387
971z"/>
<path d="M4109 7564 c-110 -155 -171 -277 -232 -469 -75 -235 -102 -418 -101
-695 0 -356 48 -646 170 -1023 106 -327 336 -774 569 -1107 84 -120 99 -140
104 -139 3 0 47 52 96 115 113 146 261 370 322 489 l46 91 -93 163 c-166 291
-288 583 -360 866 -116 455 -94 869 63 1180 64 127 180 270 288 352 27 20 49
40 49 44 0 14 -198 108 -292 138 -141 45 -253 63 -423 68 l-150 5 -56 -78z"/>
<path d="M4955 5828 c-82 -5 -151 -10 -152 -12 -6 -6 68 -227 106 -317 59
-140 135 -300 180 -377 l40 -69 168 -7 c717 -31 1291 -239 1682 -610 225 -214
355 -483 387 -799 l6 -58 66 36 c237 130 454 332 564 525 l26 45 -29 85 c-85
253 -261 517 -494 739 -511 487 -1232 775 -2060 821 -195 11 -281 11 -490 -2z"/>
<path d="M3629 5507 c-411 -186 -765 -449 -1002 -746 -226 -283 -348 -581
-363 -886 -31 -598 342 -1102 936 -1265 41 -11 85 -20 97 -20 21 0 20 4 -22
59 -220 289 -333 675 -296 1014 31 288 155 533 378 747 145 140 264 222 471
326 94 48 172 88 172 90 0 1 -18 42 -41 91 -82 177 -152 365 -209 561 -11 39
-22 72 -23 72 -1 0 -45 -20 -98 -43z"/>
<path d="M5208 4737 c-166 -329 -359 -598 -602 -843 -297 -298 -562 -459 -871
-529 -195 -44 -347 -42 -539 6 -43 11 -79 19 -81 17 -1 -2 6 -43 16 -93 49
-237 164 -471 325 -659 l59 -69 94 2 c414 10 892 207 1313 543 217 172 514
498 703 772 152 219 459 781 467 856 3 20 -4 25 -57 41 -164 50 -536 109 -685
109 l-65 0 -77 -153z"/>
<path d="M8006 3911 c-123 -150 -298 -296 -474 -395 -126 -71 -228 -112 -366
-144 -98 -23 -132 -26 -291 -26 -159 0 -193 3 -291 26 -244 57 -470 177 -700
371 l-100 85 -105 -141 c-113 -153 -220 -279 -337 -399 -42 -43 -74 -79 -71
-82 51 -48 227 -180 336 -253 244 -162 517 -281 773 -337 542 -119 1016 4
1351 351 166 172 260 344 320 587 23 91 37 365 22 404 -9 23 -12 21 -67 -47z"/>
</g>
</svg>
